<svg width="1022" height="919" viewBox="0 0 1022 919" fill="none" xmlns="http://www.w3.org/2000/svg">
<path d="M507 2.11237C504.2 5.17902 504.067 11.179 506.734 17.4457C508.467 21.579 508.6 30.7791 508.067 80.379C507.534 138.379 507.534 138.512 504.334 145.446C500.467 153.846 484.067 178.246 480.334 181.179C478.067 183.046 472.2 183.579 445.134 184.379C406.067 185.579 406.334 185.446 405.134 199.579L404.334 208.112L401.134 204.512C399.534 202.512 397.4 198.112 396.6 194.779L395 188.779L384.2 189.712C372.334 190.646 346.334 196.912 337.267 200.912C326.734 205.579 327 204.379 327.267 257.979C327.534 294.779 327.934 306.379 329.4 309.046C330.467 311.046 335.134 314.646 340.6 317.579C355.8 325.979 354.6 319.712 354.2 394.379C354.067 429.979 353.667 459.179 353.534 459.312C353.4 459.446 347 457.579 339.134 455.046C318.467 448.379 315 447.979 310.867 452.112C307.8 455.179 307.4 456.646 307.4 465.446C307.4 473.579 307 475.579 305.134 476.246C303.934 476.779 302.6 476.646 302.067 476.112C299.934 473.712 298.067 465.446 298.067 458.112C298.067 448.379 297.134 446.646 288.6 439.846C277.934 431.312 249.934 400.912 247.267 395.046C245.267 390.512 244.734 384.112 244.067 353.046C243.4 317.846 243.4 316.112 246.2 308.646C249 301.312 249 300.779 246.867 295.312C245.667 292.112 243 287.846 240.867 285.846L237 282.112L234.6 288.646C231.934 295.446 231.4 305.846 233.134 315.579C234.067 321.179 234.067 321.312 231.134 320.512C229.4 319.979 223 319.312 216.734 318.912C206.734 318.112 204.2 318.512 195.4 321.579C179 327.446 176.467 327.712 162.734 325.312C151 323.312 150.067 323.312 143.934 325.712C136.334 328.512 125.4 338.512 121 346.246C117.4 352.646 116.467 352.512 136.467 349.446C150.6 347.446 151.934 347.446 158.734 349.579C167 352.112 167.934 353.712 162.067 355.046C159.934 355.579 158.067 356.512 158.067 357.179C158.067 358.646 160.467 359.179 182.067 362.379C203.134 365.446 212.867 365.712 224.734 363.179C229.534 362.112 233.534 361.446 233.8 361.712C235 362.779 234.2 389.046 232.867 392.379C231.934 394.512 228.334 399.446 224.6 403.312C221 407.046 218.067 411.046 218.067 412.112C218.067 413.179 216.067 415.312 213.534 416.779C203.667 422.646 198.6 434.112 197.134 453.179L196.334 465.046H205.8C218.6 465.046 221.934 468.779 218.067 478.912C216.867 482.379 216.867 482.379 223.534 482.379H230.334L226.867 488.379L223.4 494.246L228.334 495.579C231.134 496.379 235.8 497.446 238.734 498.112L244.067 499.179L238.067 502.379C234.734 504.112 228.734 506.512 224.734 507.712L217.4 510.112L222.734 512.379C227.4 514.379 229.4 514.512 238.734 513.179C244.6 512.379 260.867 511.712 274.867 511.712H300.467L301.134 507.979C302.867 499.046 303.134 499.446 295.534 496.912C286.334 493.712 283.4 491.046 283.4 485.979C283.4 483.579 282.2 480.512 280.6 478.779C277.8 475.979 275.134 462.379 277.267 462.379C279.534 462.379 286.067 466.646 287.4 468.912C288.067 470.379 288.734 473.446 288.734 475.712C288.734 484.512 293 487.179 309.534 488.646C318.6 489.312 319.267 489.179 320.734 486.379C322.334 483.312 321.934 473.312 320.067 468.512C319 466.112 319.4 465.979 327.534 466.912C338.867 468.246 349.267 472.912 351.934 478.246C353.667 481.446 354.067 487.179 354.067 508.512V534.646L349.8 533.846C347.4 533.312 325.267 532.646 300.734 532.246C222.467 530.779 187.8 535.446 162.2 551.046C149.667 558.512 145 559.579 137.134 556.246L131.134 553.712L131.267 515.979C131.4 495.179 132.067 476.912 132.734 475.179C134.467 470.379 141 466.512 149.667 465.046C153.934 464.246 159 463.446 161.134 463.046L164.734 462.379V479.179C164.734 492.246 165.134 495.846 166.467 495.312C167.4 495.046 172.734 493.712 178.467 492.379L188.734 490.112V481.846C188.734 477.446 189.134 466.912 189.667 458.512L190.467 443.312L175.8 444.246C157.534 445.446 138.2 449.312 130.2 453.446C126.867 455.179 122.734 458.512 121 461.046C118.067 465.446 118.067 465.979 118.067 510.379C118.067 535.179 117.667 557.179 117.267 559.312C116.6 563.046 117 563.446 125.134 567.579C138.734 574.512 139.4 575.579 141 593.312C141.8 602.646 141.934 621.846 141.267 643.712C140.734 663.179 140.2 690.112 140.067 703.712C139.934 720.512 139.134 731.979 137.667 739.712C135.134 752.646 131.4 784.112 131.4 792.912C131.4 800.646 127.267 808.912 121.534 812.779C117.267 815.712 87.1335 827.046 65.8002 833.846C54.8669 837.312 53.0002 838.779 55.2669 841.579C56.4669 843.046 53.0002 845.179 38.4669 852.246C18.8669 861.846 8.2002 869.046 3.26686 875.846L0.200195 880.112L10.8669 879.179C16.6002 878.646 28.3335 877.046 36.7335 875.712C45.2669 874.246 60.2002 872.246 70.0669 871.046C89.0002 869.046 139.4 866.779 139.4 867.979C139.4 868.379 135 871.446 129.667 874.779C124.334 878.112 118.867 882.112 117.534 883.579C115 886.379 115 886.379 118.2 886.379C119.934 886.379 129.267 885.179 138.734 883.846C160.2 880.646 181.934 878.779 220.734 877.046C237.267 876.246 255.534 875.046 261.267 874.379C267.134 873.579 273.4 873.046 275.267 873.046L278.734 873.179L274.734 876.512C266.067 883.979 228.067 900.646 211 904.379C202.467 906.246 200.867 907.046 202.2 908.512C204.334 911.179 215.934 910.912 232.6 907.712C240.334 906.246 263.267 902.379 283.4 899.046C303.534 895.712 327.134 891.579 335.667 889.846C344.2 888.246 351 887.312 350.6 887.846C350.334 888.379 345.134 891.712 339 895.179C325.267 903.046 319.4 907.579 316.334 912.912C313.934 917.046 313.934 917.046 317 917.046C323.534 917.046 338.2 914.112 356.067 909.179C383.534 901.579 395.4 899.046 433.534 892.379C477.8 884.646 489 883.979 529.4 887.579C546.867 889.179 569 890.379 578.467 890.379C590.067 890.379 599.667 891.179 608.467 892.912C615.534 894.379 630.467 896.246 641.534 896.912C665 898.512 695.934 904.112 728.467 912.512C741.267 915.712 753.267 918.379 755.134 918.379C758.467 918.246 757.8 917.312 747.667 907.579C738.6 899.046 733.934 895.712 723 890.379C715.534 886.779 707.134 883.446 704.467 882.912C698.467 881.846 697.8 879.712 703.4 879.712C709.934 879.712 780.334 894.112 804.067 900.246C808.334 901.446 813.134 902.379 814.734 902.379C819 902.246 808.6 893.979 795.4 887.179C775 876.512 774.734 876.779 806.067 877.579C843.8 878.646 873.667 881.712 898.067 887.046C909.534 889.579 922.067 891.979 926.067 892.512L933.4 893.312L928.2 887.846C925.267 884.912 920.6 881.312 917.667 879.846C914.6 878.246 913.134 876.912 914.067 876.379C915 875.846 931.4 875.312 950.467 875.312C983.667 875.179 1000.87 876.512 1017.67 880.512L1021.4 881.446L1017.4 877.046C1009.8 868.912 961.534 847.046 953.267 847.979C950.334 848.379 948.6 847.846 948.067 846.646C946.867 843.446 947.4 842.379 950.067 842.379C951.4 842.379 955.8 841.712 959.667 840.912L966.6 839.312L962.734 836.246C960.6 834.646 956.2 832.246 952.867 830.912C949.534 829.712 942.6 826.379 937.4 823.712C932.334 820.912 922.467 816.379 915.534 813.579C901.667 807.712 893.4 801.579 890.334 794.512C889 791.446 887.934 782.512 887.267 769.712C886.6 758.646 885.534 744.646 884.734 738.379C883 724.512 881.4 611.046 882.734 590.112L883.667 574.912L889.667 573.312C893 572.379 897.4 569.979 899.4 567.979L903.134 564.246L903.667 516.246C904.334 465.046 904.2 463.579 897.8 459.046C891.267 454.512 862.6 447.312 844.334 445.579L834.067 444.646V466.112C834.067 487.179 834.067 487.579 837.534 491.579C839.667 494.246 843.4 496.379 847.8 497.712C851.534 498.779 854.734 499.712 855 499.712C855.267 499.712 855.4 491.579 855.4 481.712C855.4 471.846 855.534 463.712 855.8 463.712C856.067 463.712 861.267 465.446 867.4 467.712C873.667 469.846 881.667 472.112 885.267 472.512C891.8 473.446 891.8 473.446 889 475.846C886.067 478.112 886.067 478.779 886.067 516.379C886.067 540.112 885.534 555.579 884.734 557.179C882.734 560.779 878.334 560.379 871.4 555.579C853.8 543.712 839.934 539.446 797 532.779C771.8 528.912 766.6 528.646 736.734 528.512C709.134 528.512 700.867 528.912 683.8 531.446C672.6 533.179 661.934 534.379 659.8 534.112C653.667 533.446 652.6 529.046 652.334 505.179C652.067 479.979 652.734 478.379 665.4 473.446C669.667 471.846 674.2 469.579 675.4 468.379C677.534 466.379 677.934 466.646 679.934 470.912C681.134 473.446 682.067 478.779 682.067 483.046C682.067 489.446 682.467 490.512 684.2 489.846C685.4 489.446 687.4 489.046 688.867 489.046C691.134 489.046 691.4 487.979 691.4 481.179C691.4 474.646 691.934 472.512 694.867 469.179C698.734 464.646 705 462.379 714.6 462.379H721L720.067 471.312L719.134 480.112L726.334 479.312C730.2 478.779 734.734 478.379 736.334 478.379C738.734 478.379 739.267 477.312 740.067 471.712L741 465.046H746.467C749.534 465.046 752.734 465.579 753.534 466.112C756.334 467.979 758.067 472.912 758.067 479.446C758.067 487.179 755.534 490.112 747.934 491.179C745 491.579 740.6 492.112 738.067 492.512L733.534 493.312L740.734 497.712L747.8 502.112L742.467 503.046C739.267 503.446 735.667 505.312 733.934 507.179C732.334 508.912 731.134 510.379 731.534 510.379C731.8 510.512 744.334 511.046 759.4 511.712C781.267 512.646 790.6 513.712 805.8 516.912C816.334 519.179 826.2 521.312 827.667 521.846C833.8 523.712 824.334 514.112 812.867 506.512L801.4 499.046L809.8 498.646L818.067 498.246V473.179V447.979L813.667 441.579C811.134 437.979 806.6 430.512 803.4 425.179C800.2 419.712 794.2 411.446 790.067 407.046C777.134 393.179 777 392.512 775.4 353.179L774.334 323.179L777.534 314.512C779.934 308.379 780.6 304.246 780.067 301.046C779 294.379 773.934 281.046 772.6 281.046C771 281.046 765.134 293.046 764.067 298.646C763.534 301.579 763.934 305.979 765.267 310.379C767 316.112 767.4 324.512 767.4 354.246C767.4 398.112 768.2 395.179 749.667 416.512C730.867 438.246 725.4 442.246 710.2 445.046C705.667 445.846 691.4 450.112 678.467 454.379C665.534 458.779 654.734 462.112 654.334 461.712C652.334 459.846 651.534 436.246 652.734 415.046C653.4 401.846 654.334 375.846 654.6 357.312C655 332.246 655.534 323.179 656.867 321.579C657.8 320.512 662.2 317.846 666.6 315.846C681 309.179 680.067 313.446 679.667 257.979C679.134 203.046 679.534 204.912 668.067 200.646C656.867 196.512 637.4 191.846 626.867 190.912L616.734 189.979V210.912C616.734 234.646 617.934 239.312 625 243.712C631 247.312 628.6 247.046 615.8 242.512C602.6 237.846 602.6 237.846 599.934 232.779C598.334 229.712 597.934 226.646 598.6 221.179C601 198.779 601 197.846 598.334 193.579C593.4 185.979 581.134 182.379 559.4 182.379C544.067 182.379 540.867 180.646 537.534 170.912C536.467 167.579 532.334 161.179 528.6 156.646C517.8 143.712 516.2 139.046 516.867 122.379C517.134 114.646 517.267 100.779 517.134 91.579L516.867 74.6457L522.467 75.9791C529.534 77.579 537.134 76.7791 555 72.2457C572.067 67.9791 579.934 68.2457 597.4 73.8457C608.334 77.3124 611.134 77.7124 628.067 77.7124C644.334 77.7124 648.467 77.179 660.067 73.9791C667.4 71.9791 675.8 68.6457 678.734 66.6457L684.067 63.0457L665.4 62.2457C645 61.179 636.734 59.179 628.2 53.0457L623.134 49.179L628.467 47.579C634.867 45.7124 641.8 40.2457 645.134 34.5124C647.4 30.5124 647.4 30.379 645.134 30.379C643.8 30.5124 639.134 31.3124 634.734 32.379C623.934 35.0457 616.334 34.9124 593.134 31.579C569.534 28.2457 555.934 28.6457 531.534 33.7124C522.467 35.579 514.867 37.0457 514.6 37.0457C513.667 37.0457 515.8 22.7791 517.534 16.5124C519.267 10.5124 519.134 9.44568 517 5.17902C514.334 -0.287598 510.334 -1.62097 507 2.11237ZM495.534 202.246C498.6 204.646 498.734 205.712 499.134 222.779C499.667 242.912 499.934 242.379 488.467 242.379H483.534L483.667 223.979C483.8 213.979 483.4 204.379 482.867 202.646C481.934 199.979 482.334 199.712 487.134 199.712C490.334 199.712 493.667 200.646 495.534 202.246ZM427.4 203.579C431.934 212.246 431.667 239.446 426.6 256.779C423.267 268.246 423.267 268.246 414.6 269.179C405.134 270.112 379.934 277.312 370.734 281.712C361.534 285.979 366.067 285.846 386.067 280.912C404.467 276.512 429.267 274.512 445.534 276.379C454.6 277.446 454.6 277.446 450.734 279.179C448.6 280.112 445.267 280.912 443.4 281.046C439.534 281.179 427.934 286.112 429 287.179C430.2 288.246 464.334 285.046 482.067 282.112C510.334 277.446 545.4 279.979 586.734 289.712C610.334 295.312 627.4 299.979 627.4 301.046C627.4 302.912 619.667 303.579 611.134 302.379C606.467 301.712 565.134 301.046 519.267 300.912C447.267 300.646 434.2 300.912 422.067 302.779C403.4 305.712 371.267 309.046 361.667 309.046C357.4 309.046 351.934 308.112 349.267 307.046C341.134 303.712 340.734 300.912 340.734 256.779V217.712L356.867 213.312C365.8 210.912 373.4 209.312 373.934 209.712C374.334 210.246 374.867 217.979 375.134 227.046L375.667 243.446L382.6 240.246C386.467 238.512 393.667 236.112 398.467 234.912L407.4 232.646V227.712C407.4 225.046 407.8 218.246 408.2 212.646L409.134 202.512L416.6 201.979C420.734 201.712 424.467 201.446 425 201.312C425.534 201.179 426.6 202.246 427.4 203.579ZM545.534 205.712C546.734 208.779 547.4 215.046 547.4 224.379C547.4 240.112 545.667 243.712 538.2 243.712C530.067 243.712 530.067 243.579 530.067 225.179C530.067 204.112 530.467 202.646 535.934 201.979C538.2 201.712 540.867 201.312 541.8 201.312C542.734 201.179 544.467 203.179 545.534 205.712ZM658.6 214.779L666.467 217.579L665.667 244.246C665.134 259.046 664.734 277.179 664.734 284.512C664.734 295.712 664.334 298.646 662.334 301.179C658.734 305.446 652.867 305.046 644.467 299.712C640.6 297.312 632.6 292.646 626.867 289.446C621 286.379 615.934 283.312 615.534 282.912C615.134 282.512 619.4 282.512 625.134 283.046C635 283.979 635.667 283.846 636.334 281.179C636.734 279.712 637.534 278.379 638.2 278.379C638.734 278.379 638.334 275.846 637.134 272.646C635.534 268.112 635.134 261.579 635.267 239.046C635.4 223.579 635.8 209.979 636.2 208.779C636.867 206.646 637.4 206.646 643.8 209.312C647.667 210.779 654.334 213.312 658.6 214.779ZM529.4 251.579C529.8 252.246 529.534 253.179 528.734 253.712C528.067 254.112 527.4 253.579 527.4 252.512C527.4 250.112 528.2 249.712 529.4 251.579ZM434.067 271.712C434.067 272.379 433.4 273.046 432.6 273.046C431.934 273.046 431.667 272.379 432.067 271.712C432.467 270.912 433.134 270.379 433.534 270.379C433.8 270.379 434.067 270.912 434.067 271.712ZM582.467 307.312C581.534 307.579 579.667 307.579 578.467 307.312C577.134 306.912 577.934 306.646 580.067 306.646C582.334 306.646 583.267 306.912 582.467 307.312ZM444.467 318.512C449.534 320.246 450.734 323.712 449.534 332.246L448.6 338.112L430.067 339.046C419.8 339.579 411.4 340.512 411.4 341.179C411.4 341.846 412.867 342.379 414.734 342.379C417.934 342.379 418.067 342.646 418.067 351.712V361.046L409.8 361.179C402.067 361.312 401.8 361.446 405.934 362.646C408.334 363.312 411.8 364.779 413.534 365.979C416.6 367.846 416.734 367.846 418.067 364.379C419.267 361.179 419.934 360.779 423.534 361.579C425.934 361.979 430.334 362.379 433.534 362.379H439.4L439.534 370.646L439.8 379.046L441.134 370.646C442.334 362.912 442.734 362.379 445.934 362.379C451.667 362.512 459.667 364.779 460.867 366.646C463.134 369.979 462.067 375.846 458.734 379.046C455.667 382.246 454.734 382.379 440.067 382.379C424.6 382.379 420.334 381.446 417.134 377.179C415.8 375.312 415.267 375.446 412.734 378.646C409.667 382.646 403.134 384.512 396.867 383.046C393 382.246 392.734 381.846 392.734 375.846C392.734 369.312 394.2 366.379 398.734 363.979C400.867 362.779 399.667 362.512 392.467 362.379C387.267 362.379 383.4 362.912 383.4 363.712C383.4 364.379 384.6 365.046 386.067 365.046C388.467 365.046 388.734 365.979 388.734 372.379C388.734 378.512 388.067 380.246 384.734 384.112L380.734 388.646L404.6 389.312C424.334 389.846 429.4 390.512 433.534 392.512C438.067 394.646 438.734 395.712 439.134 399.979C439.534 404.246 440.067 405.046 442.734 405.046C444.467 405.046 447.534 406.379 449.534 408.112C452.467 410.646 453.267 412.646 453.8 418.779L454.334 426.379H416.2C391.667 426.379 378.067 426.912 378.067 427.712C378.067 428.379 380.467 429.046 383.4 429.046C388.334 429.046 388.734 429.312 388.734 432.646C388.734 436.912 384.334 447.179 381.134 450.646C379.134 452.912 379.667 453.046 392.467 453.046H406.067V460.779C406.067 470.379 403.934 472.779 394.2 473.979C386.734 474.779 385.8 475.846 390.467 477.979C392.067 478.779 394.334 480.912 395.267 482.912C398.334 488.512 395.934 493.046 388.067 497.046L381.4 500.379L391 500.779L400.467 501.179L401 507.046C401.534 514.379 400.2 521.046 397.8 522.512C396.867 523.179 393.667 524.512 390.734 525.446C385.8 526.912 386.867 527.046 404.067 527.446C414.334 527.579 427.534 527.179 433.4 526.512C439.267 525.846 444.6 525.712 445.267 526.379C445.8 526.912 446.734 530.246 447 533.446L447.667 539.579L438.2 540.512C429.134 541.312 428.734 541.579 430.867 543.846C434.867 548.379 436.6 556.112 436.734 570.646C436.734 588.112 435.4 590.379 424.867 590.379C421.4 590.379 414.734 590.779 410.067 591.312L401.8 592.112L402.6 587.979C405.134 574.912 405.4 576.112 399.534 575.179C391.934 573.979 388.334 575.846 385.4 582.646C380.734 593.446 376.334 595.579 369.934 590.512L366.6 587.979L366.334 484.912C366.2 428.112 365.667 370.512 365.267 356.912C364.067 321.179 364.734 319.846 386.467 318.646L398.067 318.112V324.512C397.934 328.112 397.4 333.712 396.734 337.046L395.667 343.046L398.2 339.846C399.934 337.712 400.734 334.646 400.734 329.846C400.734 322.646 402.067 319.846 406.734 317.179C410.067 315.179 437.934 316.246 444.467 318.512ZM631.267 317.579C638.734 321.579 638.467 315.979 638.2 456.246C638.067 537.446 637.4 586.379 636.6 587.846C634.734 591.446 630.467 593.312 623.667 593.446C615.934 593.446 612.734 589.979 612.734 581.579V575.712H603.8C583.534 575.712 580.2 572.512 581 553.712L581.534 541.046H577.667C571.934 541.046 569.4 537.712 569.8 530.646C569.934 527.312 570.334 524.379 570.734 523.979C571 523.579 578.734 524.379 587.667 525.579C605.267 527.846 620.734 528.379 618.6 526.646C617.934 525.979 614.467 524.379 611 523.179C602.6 519.979 601.134 516.912 603.267 507.046L604.867 499.712L615.8 499.579C625.934 499.446 626.334 499.312 621.8 497.979C619 497.179 616.734 496.112 616.734 495.446C616.734 494.912 612.334 494.379 607.134 494.379C601.8 494.379 595.134 493.979 592.467 493.579L587.4 492.646V483.312V473.979L597.667 474.912C615.534 476.512 614.867 476.112 616.467 485.446L617.934 493.712L617.267 485.446C616.734 478.379 617 477.179 619 476.646C620.6 476.246 619.134 475.046 614.067 472.779C605.134 468.646 603.4 466.646 602.467 459.979C601.4 452.379 604.067 450.379 615.4 450.379H624.467L620.067 445.979C617.534 443.446 615.134 439.846 614.6 437.979C613.4 432.912 617 427.712 621.8 427.579C623.8 427.579 626.6 427.046 628.067 426.512C630.067 425.712 628.6 425.046 621.934 423.846C617.134 423.046 610.734 422.379 607.667 422.379H602.067V413.846V405.446L595.8 404.512C586.6 403.312 585.667 402.379 586.734 395.579L587.534 389.712L603.667 390.112C616.067 390.512 620.067 390.246 620.867 388.779C622.734 385.846 622.334 385.179 616.6 383.712L611.134 382.246L611.934 373.979C612.467 369.446 613.267 364.379 613.534 362.912C614.2 360.379 613.534 359.979 607.134 359.179C597.267 357.846 594.067 355.446 594.067 349.579C594.067 342.379 596.067 339.712 601.534 339.712C609 339.712 613.667 334.112 614.867 323.846L615.8 315.712H621.667C624.867 315.712 629.134 316.512 631.267 317.579ZM240.734 334.912C240.734 335.312 240.2 335.979 239.4 336.379C238.734 336.779 238.067 336.512 238.067 335.846C238.067 335.046 238.734 334.379 239.4 334.379C240.2 334.379 240.734 334.646 240.734 334.912ZM457.134 343.979C458.867 344.912 459.4 346.912 459.4 353.846C459.4 361.712 459.134 362.512 457.134 361.712C455.8 361.179 449.134 360.379 442.334 359.979C430.467 359.312 429.934 359.179 430.6 356.512C431 354.912 431.4 350.779 431.4 347.312V340.779L443.134 341.712C449.534 342.246 455.8 343.312 457.134 343.979ZM471.4 375.446C471.4 377.446 471.134 377.446 470.067 375.712C468.334 373.046 468.334 371.312 470.067 372.379C470.867 372.779 471.4 374.246 471.4 375.446ZM472.334 395.979C471.934 397.046 471.534 396.646 471.534 395.179C471.4 393.712 471.8 392.912 472.2 393.446C472.6 393.846 472.734 395.046 472.334 395.979ZM606.467 427.179L611.4 428.112V437.712V447.446L600.2 447.179C587.534 447.046 587.4 446.912 587.4 436.512C587.4 427.312 592.2 424.912 606.467 427.179ZM409.8 428.512C415.534 430.112 418.867 441.846 415.134 446.646C412.867 449.446 406.467 450.512 398.2 449.446L391.4 448.646V441.179C391.4 437.046 391.934 432.912 392.6 431.979C394.6 428.779 403.8 426.912 409.8 428.512ZM445.134 428.646C443.4 428.912 440.734 428.912 439.134 428.646C437.4 428.379 438.734 428.112 442.067 428.112C445.4 428.112 446.734 428.379 445.134 428.646ZM458.067 436.246C458.067 440.646 457.267 443.179 454.867 445.979C451.934 449.446 450.867 449.712 442.6 449.712H433.534L431.534 443.446C430.067 438.512 429.934 436.379 431.134 433.712C432.6 430.512 433.134 430.379 445.4 430.379H458.067V436.246ZM507.4 447.846C507.4 453.046 507.4 453.046 502.067 453.046C496.867 453.046 496.734 452.912 498.2 449.979C500.467 445.579 505 441.046 506.2 441.846C506.867 442.246 507.4 444.912 507.4 447.846ZM521.134 448.912L523.667 453.046H518.2H512.734V446.912C512.734 440.779 512.734 440.779 515.8 442.646C517.4 443.846 519.8 446.512 521.134 448.912ZM446.334 457.312C446.6 465.846 445.934 470.912 444.467 472.646C443.534 473.846 438.2 474.379 426.6 474.379H410.067V463.712V453.179L418.467 452.646C423 452.379 431.134 452.112 436.467 451.979L446.067 451.712L446.334 457.312ZM313.4 459.712C313.8 460.379 313.534 461.046 312.867 461.046C312.067 461.046 311.4 460.379 311.4 459.712C311.4 458.912 311.667 458.379 311.934 458.379C312.334 458.379 313 458.912 313.4 459.712ZM507.4 465.046V471.712H502.734H498.067V465.046V458.379H502.734H507.4V465.046ZM522.067 465.046V471.712H517.4H512.734V465.046V458.379H517.4H522.067V465.046ZM364.334 477.979C364.067 480.112 363.8 478.379 363.8 474.379C363.8 470.379 364.067 468.646 364.334 470.646C364.6 472.779 364.6 475.979 364.334 477.979ZM421.4 480.379C423.534 482.379 424.734 485.179 424.734 487.712C424.734 489.846 425.4 491.712 426.067 491.712C426.867 491.712 427.4 488.379 427.4 484.379C427.4 475.846 429.267 475.046 436.867 480.112C444.067 484.779 446.6 491.579 447.134 507.179L447.667 520.646L430.6 521.579C421.134 521.979 411.134 522.779 408.467 523.312L403.4 524.112V512.112V500.246L409.8 498.379L416.067 496.379L408.6 495.979L401.134 495.579L400.2 489.446C398.467 476.646 398.2 477.046 408.734 477.046C417 477.046 418.6 477.446 421.4 480.379ZM461.4 507.712C461.8 508.379 461.534 509.046 460.867 509.046C460.067 509.046 459.4 508.379 459.4 507.712C459.4 506.912 459.667 506.379 459.934 506.379C460.334 506.379 461 506.912 461.4 507.712ZM533.667 541.046H540.734V547.446C540.734 551.046 540.334 560.379 539.8 568.112L539 582.379H530.067H521.134L520.2 565.312C519.667 555.979 519 546.112 518.467 543.446L517.8 538.512L522.2 539.712C524.734 540.512 529.934 541.046 533.667 541.046ZM723.8 539.312C722.067 539.579 719.4 539.579 717.8 539.312C716.067 539.046 717.4 538.779 720.734 538.779C724.067 538.779 725.4 539.046 723.8 539.312ZM484.734 561.046V579.712H478.334H471.8L471 563.312C470.6 554.379 469.8 545.979 469.4 544.646C468.6 542.646 469.4 542.379 476.6 542.379H484.734V561.046ZM347.134 549.179L354.067 550.779V570.512C354.067 589.312 353.934 590.379 351.134 593.179C348.467 595.579 346.867 595.846 338.334 595.312C333 595.046 328.334 594.379 327.934 593.979C327.267 593.312 337.534 561.712 341.267 552.912C341.934 551.579 340.867 550.246 337.8 548.646C333 546.112 333.134 546.112 347.134 549.179ZM568.334 552.646C567.934 553.979 567.667 553.179 567.667 551.046C567.667 548.779 567.934 547.846 568.334 548.646C568.6 549.579 568.6 551.446 568.334 552.646ZM678.2 557.179C697.534 566.779 705.4 585.179 706.867 624.112C707.534 642.246 709.267 655.046 711.267 656.246C711.8 656.646 711.934 653.046 711.667 648.379L711.134 639.846L715.534 641.046C718.067 641.846 721.667 642.379 723.667 642.379C729.8 642.379 727.667 651.312 720.467 655.712C716.334 658.112 716.334 658.379 719.267 658.379C722.2 658.379 722.334 658.779 721.8 665.712C721.134 673.846 718.467 677.846 712.734 679.046L709.134 679.846L711.667 684.779C715.8 692.646 714.467 720.112 708.2 751.712C702.2 781.979 702.467 781.046 699.4 781.046C698.067 781.046 696.467 781.712 695.934 782.512C694.467 784.912 692.734 780.912 692.734 774.912C692.734 771.846 693.4 766.112 694.2 762.246C694.867 758.246 695.8 747.846 696.067 739.046C696.467 730.246 697.267 713.979 697.934 703.046C699.8 676.112 699.8 649.179 697.8 620.246L696.2 596.112L678.6 594.379C668.867 593.446 658.2 593.046 655 593.446L649 594.246L650.867 588.112C651.934 584.779 652.734 577.046 652.734 570.912C652.734 557.579 653.267 555.846 658.6 553.712C663.667 551.446 668.6 552.379 678.2 557.179ZM190.067 568.912V575.579L197.134 576.379C207.667 577.712 207.8 577.979 206.734 588.779L205.8 598.112L199.667 598.912C196.2 599.312 188.467 600.112 182.467 600.512L171.4 601.446L171.267 595.579C171.134 592.379 170.734 588.246 170.2 586.379C169.4 583.712 169 584.779 168.334 591.179C167.934 595.579 167.134 600.246 166.6 601.446C165.934 603.312 166.6 603.712 170.6 603.712H175.4V615.046C175.4 626.112 175.267 626.379 172.2 626.379C169.134 626.379 169 626.646 169.667 634.912C170.334 642.112 169.934 644.379 167.667 648.246L164.867 653.046H170.6C179 653.046 182.734 656.512 182.6 663.979C182.6 667.046 181.534 671.712 180.2 673.979C177.667 679.046 175.934 678.512 196.734 678.912C212.067 679.179 216.2 680.779 218.867 687.179C223.534 698.379 214.734 704.646 196.867 702.912L188.734 701.979V691.579C188.734 685.446 188.2 681.046 187.4 681.046C186.6 681.046 186.067 685.179 186.067 690.779V700.646L178.467 701.846C170.867 703.179 170.867 703.179 174.467 704.779C176.6 705.712 181.4 706.379 185.267 706.379C193.667 706.379 194.067 706.912 194.067 722.112C194.067 730.246 193.667 731.979 191.8 732.512C187.134 733.979 175.134 739.846 175.667 740.379C176.067 740.779 187.134 740.379 200.467 739.446C213.8 738.646 225 738.246 225.4 738.512C225.667 738.912 225.134 742.379 224.067 746.379C223 750.379 220.2 762.912 218.067 774.112C213.267 798.646 211.8 801.712 205 803.579C202.334 804.379 199.267 805.046 198.467 805.046C197.534 805.046 196.734 806.379 196.734 807.979C196.6 817.179 187.267 827.579 177.134 829.712C173 830.512 173 830.379 170.867 823.179C168.6 815.312 166.067 812.246 166.067 817.312C166.067 822.379 159.934 833.846 155.667 836.912C151.534 839.846 142.734 843.979 137.134 845.579L134.334 846.512L137.4 836.646C141.4 823.979 144.2 807.579 146.067 785.712C146.867 776.112 148.467 759.446 149.534 748.379C151 733.446 151.4 709.979 151.4 653.846C151.267 582.512 151.4 579.046 153.8 575.846C157.267 571.179 166.2 566.779 176.734 564.512C190.467 561.579 190.067 561.446 190.067 568.912ZM363.4 576.646C362.067 578.779 361.934 578.646 362.6 575.712C363 573.846 363.534 570.912 363.534 569.046C363.8 566.512 363.934 566.646 364.334 569.979C364.6 572.379 364.2 575.446 363.4 576.646ZM862.2 572.512C869.134 575.979 869.134 575.979 867.934 608.646C866.6 641.846 866.6 640.246 868.867 701.979C869.8 725.579 870.867 744.646 871.4 744.379C871.8 744.112 872.867 754.779 873.8 768.112C874.6 781.446 877.134 803.179 879.4 816.379C884.867 849.312 885 848.646 875.667 843.846C868.467 840.112 864.867 835.579 862.067 826.912L859.667 819.046L857.267 823.579C852.734 831.846 849.134 834.779 844.334 833.846C830.2 831.046 830.334 831.179 829.4 821.846C828.867 817.179 828.867 812.112 829.267 810.646C830.067 808.246 829.4 807.579 824.734 806.379C817.267 804.379 814.067 800.912 814.067 794.646C813.934 779.446 811.4 746.512 810.067 743.179C809.267 741.046 808.867 739.179 809 738.912C809.267 738.779 816.334 739.446 824.734 740.379C833.134 741.446 841.934 742.246 844.067 742.246L848.067 742.379L844.067 739.712C837.667 735.579 833.934 727.846 833.134 716.379L832.334 706.379H846.6C859.667 706.379 860.734 706.246 859.667 703.979C857 699.046 853.934 682.112 855.4 680.379C856.467 679.046 853.934 678.512 843.8 677.846C836.6 677.312 828.2 676.646 825.134 676.246L819.4 675.446V666.379V657.312L832.067 656.379C843.134 655.579 844.467 655.179 843.534 653.179C843 651.979 841.8 647.979 840.867 644.379C839.934 640.646 839 636.779 838.6 635.579C838.067 633.846 839.4 633.179 845 632.512C856.6 631.046 860.734 630.112 860.734 629.046C860.734 627.579 849.667 626.379 848.067 627.712C844.867 630.379 836.734 620.912 836.734 614.512C836.734 610.912 842.867 606.379 847.934 606.379C851.134 606.379 851.534 605.979 850.067 605.046C849 604.379 844.734 603.712 840.734 603.712H833.4V594.379C833.4 588.246 833.934 585.046 834.867 585.046C835.8 585.046 839.8 586.779 843.934 588.912L851.4 592.912V583.046C851.4 568.112 852.2 567.446 862.2 572.512ZM380.467 595.312C379.134 595.579 377 595.579 375.8 595.312C374.467 594.912 375.534 594.646 378.067 594.646C380.6 594.646 381.667 594.912 380.467 595.312ZM200.6 624.912C201.934 625.712 202.2 627.846 201.4 633.179C200.067 643.712 199.667 644.912 195.4 647.046C190.334 649.712 179.534 649.579 175.667 646.912C171.534 644.112 171.667 635.846 175.8 630.912C178.467 627.846 180.334 627.179 187.267 626.646C191.8 626.379 195.8 625.579 196.2 624.912C197.134 623.446 198.2 623.446 200.6 624.912ZM562.067 634.112C562.067 638.912 562.867 642.912 564.067 644.646C566.867 648.646 575.134 650.646 583.534 649.579L590.467 648.646L589.534 653.846C589 656.646 586.467 662.512 583.934 666.646L579.267 674.246L579 713.312L578.734 752.379L584.467 764.512C587.534 771.179 590.067 777.312 590.067 778.112C590.067 779.312 582.734 779.712 563.4 779.712C544.6 779.712 536.734 779.312 536.734 778.246C536.734 777.446 539 771.846 541.8 765.846L546.734 755.046V730.379C546.734 707.446 546.467 705.179 543.667 699.046C537.134 684.912 525.134 677.046 509.934 677.046C493.267 677.046 481.4 684.112 474.467 698.112C470.867 705.446 470.734 706.646 470.334 728.512L469.8 751.179L475.267 763.979C478.334 770.912 480.734 777.446 480.734 778.246C480.734 779.312 473 779.712 454.067 779.712C435.134 779.712 427.4 779.312 427.4 778.246C427.4 777.446 429.134 773.579 431.267 769.846C438.067 757.712 438.734 751.979 438.334 711.179C438.067 676.912 437.8 673.579 435.4 669.846C430.2 661.579 429 658.779 427.934 653.846L427 648.646L434.2 649.446C443 650.512 450.6 648.646 453.4 644.646C454.6 642.912 455.4 638.779 455.4 634.112V626.379H508.734H562.067V634.112ZM715.4 634.912C715.4 635.312 714.867 635.979 714.067 636.379C713.4 636.779 712.734 636.512 712.734 635.846C712.734 635.046 713.4 634.379 714.067 634.379C714.867 634.379 715.4 634.646 715.4 634.912ZM148.334 640.646C147.934 641.979 147.667 641.179 147.667 639.046C147.667 636.779 147.934 635.846 148.334 636.646C148.6 637.579 148.6 639.446 148.334 640.646ZM828.734 679.712C828.734 680.379 828.467 681.046 828.2 681.046C827.8 681.046 827.134 680.379 826.734 679.712C826.334 678.912 826.6 678.379 827.267 678.379C828.067 678.379 828.734 678.912 828.734 679.712ZM844.867 681.846C847.534 682.512 849.534 687.179 851.934 697.179L853.667 704.512H842.6L831.667 704.379L830.867 695.712C830.467 690.912 830.067 685.312 830.067 683.179C830.067 679.446 830.067 679.446 836.467 680.246C839.934 680.779 843.667 681.446 844.867 681.846ZM223.4 735.712C223.4 736.379 222.867 737.046 222.067 737.046C221.4 737.046 220.734 736.379 220.734 735.712C220.734 734.912 221.4 734.379 222.067 734.379C222.867 734.379 223.4 734.912 223.4 735.712ZM722.467 756.912C721.4 761.579 718.6 766.912 716.334 768.779C714.734 770.112 714.334 769.446 713.534 764.246C712.067 753.446 712.2 753.446 718.067 753.446C723.134 753.446 723.267 753.579 722.467 756.912ZM742.067 776.912C742.867 779.046 743.4 781.979 743.134 783.312C742.334 787.446 735.4 779.446 735.4 774.379C735.4 770.779 735.667 770.512 737.934 771.579C739.267 772.379 741.134 774.779 742.067 776.912ZM231.267 794.646C231.134 802.512 228.734 811.979 226.734 812.646C225.934 812.779 224.6 812.512 223.667 811.846C222.2 811.046 222.334 809.179 223.934 801.846C227.534 786.379 231.534 782.646 231.267 794.646ZM908.734 813.046C908.734 813.712 908.467 814.379 908.2 814.379C907.8 814.379 907.134 813.712 906.734 813.046C906.334 812.246 906.6 811.712 907.267 811.712C908.067 811.712 908.734 812.246 908.734 813.046ZM912.734 826.379C912.734 827.046 912.067 827.712 911.267 827.712C910.6 827.712 910.334 827.046 910.734 826.379C911.134 825.579 911.8 825.046 912.2 825.046C912.467 825.046 912.734 825.579 912.734 826.379ZM71.1335 864.646C67.5335 864.912 61.9335 864.912 58.4669 864.646C54.8669 864.379 57.8002 864.246 64.7335 864.246C71.6669 864.246 74.6002 864.379 71.1335 864.646ZM909.667 875.179C909.267 875.579 908.067 875.712 907.134 875.312C906.067 874.912 906.467 874.512 907.934 874.512C909.4 874.379 910.2 874.779 909.667 875.179ZM375.8 900.646C374.867 900.912 373 900.912 371.8 900.646C370.467 900.246 371.267 899.979 373.4 899.979C375.667 899.979 376.6 900.246 375.8 900.646Z" fill="#EAF8FF"/>
<path d="M389.4 403.712C388.867 404.512 390.2 405.046 392.6 405.046H396.6L397.134 413.979L397.534 423.046L397.8 413.979L398.067 405.046H409.4C416.067 405.046 420.734 404.512 420.734 403.712C420.734 402.912 414.734 402.379 405.534 402.379C396.734 402.379 389.934 402.912 389.4 403.712Z" fill="#EAF8FF"/>
<path d="M393.4 543.046C389.934 546.379 389.267 551.312 390.867 561.312L391.8 566.379H399.8H407.8L406.867 560.246C406.467 556.779 406.067 550.779 406.067 546.912V539.712H401.4C398.067 539.712 395.534 540.779 393.4 543.046Z" fill="#EAF8FF"/>
<path d="M596.734 552.246V566.379H604.734H612.734V553.046V539.712H608.867C606.734 539.712 603.134 539.312 600.867 538.912L596.734 537.979V552.246Z" fill="#EAF8FF"/>
<path d="M170.067 578.512C170.067 580.912 170.334 581.046 172.067 579.712C174.067 578.112 173.667 575.712 171.267 575.712C170.6 575.712 170.067 577.046 170.067 578.512Z" fill="#EAF8FF"/>
<path d="M180.067 776.646C182.067 781.712 182.2 792.646 180.334 799.312L178.467 806.379L186.6 806.246C191.134 806.112 193.134 805.712 191.134 805.446C187 804.779 187 805.046 187.4 784.646L187.534 774.379H183.4C179.8 774.379 179.267 774.779 180.067 776.646Z" fill="#EAF8FF"/>
<path d="M836.6 777.712C841 782.779 841 782.912 840.467 793.979C839.934 804.779 839.934 805.046 843 805.046C846.067 805.046 846.067 804.779 845.267 795.979C844.867 791.046 845.134 784.512 845.8 781.446C847.267 775.179 847.4 775.312 837.4 773.579L832.067 772.646L836.6 777.712Z" fill="#EAF8FF"/>
</svg>
