<svg width="1022" height="919" viewBox="0 0 1022 919" fill="none" xmlns="http://www.w3.org/2000/svg">
<path d="M506.8 2.11237C504 5.17904 503.867 11.179 506.533 17.4457C508.267 21.579 508.4 30.779 507.867 80.379C507.333 138.379 507.333 138.512 504.133 145.446C500.267 153.846 483.867 178.246 480.133 181.179C477.867 183.046 472 183.579 444.933 184.379C405.867 185.579 406.133 185.446 404.933 199.579L404.133 208.112L400.933 204.512C399.333 202.512 397.2 198.112 396.4 194.779L394.8 188.779L384 189.712C372.133 190.646 346.133 196.912 337.067 200.912C326.533 205.579 326.8 204.379 327.067 257.979C327.333 294.779 327.733 306.379 329.2 309.046C330.267 311.046 334.933 314.646 340.4 317.579C355.6 325.979 354.4 319.712 354 394.379C353.867 429.979 353.467 459.179 353.333 459.312C353.2 459.446 346.8 457.579 338.933 455.046C318.267 448.379 314.8 447.979 310.667 452.112C307.6 455.179 307.2 456.646 307.2 465.446C307.2 473.579 306.8 475.579 304.933 476.246C303.733 476.779 302.4 476.646 301.867 476.112C299.733 473.712 297.867 465.446 297.867 458.112C297.867 448.379 296.933 446.646 288.4 439.846C277.733 431.312 249.733 400.912 247.067 395.046C245.067 390.512 244.533 384.112 243.867 353.046C243.2 317.846 243.2 316.112 246 308.646C248.8 301.312 248.8 300.779 246.667 295.312C245.467 292.112 242.8 287.846 240.667 285.846L236.8 282.112L234.4 288.646C231.733 295.446 231.2 305.846 232.933 315.579C233.867 321.179 233.867 321.312 230.933 320.512C229.2 319.979 222.8 319.312 216.533 318.912C206.533 318.112 204 318.512 195.2 321.579C178.8 327.446 176.267 327.712 162.533 325.312C150.8 323.312 149.867 323.312 143.733 325.712C136.133 328.512 125.2 338.512 120.8 346.246C117.2 352.646 116.267 352.512 136.267 349.446C150.4 347.446 151.733 347.446 158.533 349.579C166.8 352.112 167.733 353.712 161.867 355.046C159.733 355.579 157.867 356.512 157.867 357.179C157.867 358.646 160.267 359.179 181.867 362.379C202.933 365.446 212.667 365.712 224.533 363.179C229.333 362.112 233.333 361.446 233.6 361.712C234.8 362.779 234 389.046 232.667 392.379C231.733 394.512 228.133 399.446 224.4 403.312C220.8 407.046 217.867 411.046 217.867 412.112C217.867 413.179 215.867 415.312 213.333 416.779C203.467 422.646 198.4 434.112 196.933 453.179L196.133 465.046H205.6C218.4 465.046 221.733 468.779 217.867 478.912C216.667 482.379 216.667 482.379 223.333 482.379H230.133L226.667 488.379L223.2 494.246L228.133 495.579C230.933 496.379 235.6 497.446 238.533 498.112L243.867 499.179L237.867 502.379C234.533 504.112 228.533 506.512 224.533 507.712L217.2 510.112L222.533 512.379C227.2 514.379 229.2 514.512 238.533 513.179C244.4 512.379 260.667 511.712 274.667 511.712H300.267L300.933 507.979C302.667 499.046 302.933 499.446 295.333 496.912C286.133 493.712 283.2 491.046 283.2 485.979C283.2 483.579 282 480.512 280.4 478.779C277.6 475.979 274.933 462.379 277.067 462.379C279.333 462.379 285.867 466.646 287.2 468.912C287.867 470.379 288.533 473.446 288.533 475.712C288.533 484.512 292.8 487.179 309.333 488.646C318.4 489.312 319.067 489.179 320.533 486.379C322.133 483.312 321.733 473.312 319.867 468.512C318.8 466.112 319.2 465.979 327.333 466.912C338.667 468.246 349.067 472.912 351.733 478.246C353.467 481.446 353.867 487.179 353.867 508.512V534.646L349.6 533.846C347.2 533.312 325.067 532.646 300.533 532.246C222.267 530.779 187.6 535.446 162 551.046C149.467 558.512 144.8 559.579 136.933 556.246L130.933 553.712L131.067 515.979C131.2 495.179 131.867 476.912 132.533 475.179C134.267 470.379 140.8 466.512 149.467 465.046C153.733 464.246 158.8 463.446 160.933 463.046L164.533 462.379V479.179C164.533 492.246 164.933 495.846 166.267 495.312C167.2 495.046 172.533 493.712 178.267 492.379L188.533 490.112V481.846C188.533 477.446 188.933 466.912 189.467 458.512L190.267 443.312L175.6 444.246C157.333 445.446 138 449.312 130 453.446C126.667 455.179 122.533 458.512 120.8 461.046C117.867 465.446 117.867 465.979 117.867 510.379C117.867 535.179 117.467 557.179 117.067 559.312C116.4 563.046 116.8 563.446 124.933 567.579C138.533 574.512 139.2 575.579 140.8 593.312C141.6 602.646 141.733 621.846 141.067 643.712C140.533 663.179 140 690.112 139.867 703.712C139.733 720.512 138.933 731.979 137.467 739.712C134.933 752.646 131.2 784.112 131.2 792.912C131.2 800.646 127.067 808.912 121.333 812.779C117.067 815.712 86.9333 827.046 65.6 833.846C54.6667 837.312 52.8 838.779 55.0667 841.579C56.2667 843.046 52.8 845.179 38.2667 852.246C18.6667 861.846 8 869.046 3.06667 875.846L0 880.112L10.6667 879.179C16.4 878.646 28.1333 877.046 36.5333 875.712C45.0667 874.246 60 872.246 69.8667 871.046C88.8 869.046 139.2 866.779 139.2 867.979C139.2 868.379 134.8 871.446 129.467 874.779C124.133 878.112 118.667 882.112 117.333 883.579C114.8 886.379 114.8 886.379 118 886.379C119.733 886.379 129.067 885.179 138.533 883.846C160 880.646 181.733 878.779 220.533 877.046C237.067 876.246 255.333 875.046 261.067 874.379C266.933 873.579 273.2 873.046 275.067 873.046L278.533 873.179L274.533 876.512C265.867 883.979 227.867 900.646 210.8 904.379C202.267 906.246 200.667 907.046 202 908.512C204.133 911.179 215.733 910.912 232.4 907.712C240.133 906.246 263.067 902.379 283.2 899.046C303.333 895.712 326.933 891.579 335.467 889.846C344 888.246 350.8 887.312 350.4 887.846C350.133 888.379 344.933 891.712 338.8 895.179C325.067 903.046 319.2 907.579 316.133 912.912C313.733 917.046 313.733 917.046 316.8 917.046C323.333 917.046 338 914.112 355.867 909.179C383.333 901.579 395.2 899.046 433.333 892.379C477.6 884.646 488.8 883.979 529.2 887.579C546.667 889.179 568.8 890.379 578.267 890.379C589.867 890.379 599.467 891.179 608.267 892.912C615.333 894.379 630.267 896.246 641.333 896.912C664.8 898.512 695.733 904.112 728.267 912.512C741.067 915.712 753.067 918.379 754.933 918.379C758.267 918.246 757.6 917.312 747.467 907.579C738.4 899.046 733.733 895.712 722.8 890.379C715.333 886.779 706.933 883.446 704.267 882.912C698.267 881.846 697.6 879.712 703.2 879.712C709.733 879.712 780.133 894.112 803.867 900.246C808.133 901.446 812.933 902.379 814.533 902.379C818.8 902.246 808.4 893.979 795.2 887.179C774.8 876.512 774.533 876.779 805.867 877.579C843.6 878.646 873.467 881.712 897.867 887.046C909.333 889.579 921.867 891.979 925.867 892.512L933.2 893.312L928 887.846C925.067 884.912 920.4 881.312 917.467 879.846C914.4 878.246 912.933 876.912 913.867 876.379C914.8 875.846 931.2 875.312 950.267 875.312C983.467 875.179 1000.67 876.512 1017.47 880.512L1021.2 881.446L1017.2 877.046C1009.6 868.912 961.333 847.046 953.067 847.979C950.133 848.379 948.4 847.846 947.867 846.646C946.667 843.446 947.2 842.379 949.867 842.379C951.2 842.379 955.6 841.712 959.467 840.912L966.4 839.312L962.533 836.246C960.4 834.646 956 832.246 952.667 830.912C949.333 829.712 942.4 826.379 937.2 823.712C932.133 820.912 922.267 816.379 915.333 813.579C901.467 807.712 893.2 801.579 890.133 794.512C888.8 791.446 887.733 782.512 887.067 769.712C886.4 758.646 885.333 744.646 884.533 738.379C882.8 724.512 881.2 611.046 882.533 590.112L883.467 574.912L889.467 573.312C892.8 572.379 897.2 569.979 899.2 567.979L902.933 564.246L903.467 516.246C904.133 465.046 904 463.579 897.6 459.046C891.067 454.512 862.4 447.312 844.133 445.579L833.867 444.646V466.112C833.867 487.179 833.867 487.579 837.333 491.579C839.467 494.246 843.2 496.379 847.6 497.712C851.333 498.779 854.533 499.712 854.8 499.712C855.067 499.712 855.2 491.579 855.2 481.712C855.2 471.846 855.333 463.712 855.6 463.712C855.867 463.712 861.067 465.446 867.2 467.712C873.467 469.846 881.467 472.112 885.067 472.512C891.6 473.446 891.6 473.446 888.8 475.846C885.867 478.112 885.867 478.779 885.867 516.379C885.867 540.112 885.333 555.579 884.533 557.179C882.533 560.779 878.133 560.379 871.2 555.579C853.6 543.712 839.733 539.446 796.8 532.779C771.6 528.912 766.4 528.646 736.533 528.512C708.933 528.512 700.667 528.912 683.6 531.446C672.4 533.179 661.733 534.379 659.6 534.112C653.467 533.446 652.4 529.046 652.133 505.179C651.867 479.979 652.533 478.379 665.2 473.446C669.467 471.846 674 469.579 675.2 468.379C677.333 466.379 677.733 466.646 679.733 470.912C680.933 473.446 681.867 478.779 681.867 483.046C681.867 489.446 682.267 490.512 684 489.846C685.2 489.446 687.2 489.046 688.667 489.046C690.933 489.046 691.2 487.979 691.2 481.179C691.2 474.646 691.733 472.512 694.667 469.179C698.533 464.646 704.8 462.379 714.4 462.379H720.8L719.867 471.312L718.933 480.112L726.133 479.312C730 478.779 734.533 478.379 736.133 478.379C738.533 478.379 739.067 477.312 739.867 471.712L740.8 465.046H746.267C749.333 465.046 752.533 465.579 753.333 466.112C756.133 467.979 757.867 472.912 757.867 479.446C757.867 487.179 755.333 490.112 747.733 491.179C744.8 491.579 740.4 492.112 737.867 492.512L733.333 493.312L740.533 497.712L747.6 502.112L742.267 503.046C739.067 503.446 735.467 505.312 733.733 507.179C732.133 508.912 730.933 510.379 731.333 510.379C731.6 510.512 744.133 511.046 759.2 511.712C781.067 512.646 790.4 513.712 805.6 516.912C816.133 519.179 826 521.312 827.467 521.846C833.6 523.712 824.133 514.112 812.667 506.512L801.2 499.046L809.6 498.646L817.867 498.246V473.179V447.979L813.467 441.579C810.933 437.979 806.4 430.512 803.2 425.179C800 419.712 794 411.446 789.867 407.046C776.933 393.179 776.8 392.512 775.2 353.179L774.133 323.179L777.333 314.512C779.733 308.379 780.4 304.246 779.867 301.046C778.8 294.379 773.733 281.046 772.4 281.046C770.8 281.046 764.933 293.046 763.867 298.646C763.333 301.579 763.733 305.979 765.067 310.379C766.8 316.112 767.2 324.512 767.2 354.246C767.2 398.112 768 395.179 749.467 416.512C730.667 438.246 725.2 442.246 710 445.046C705.467 445.846 691.2 450.112 678.267 454.379C665.333 458.779 654.533 462.112 654.133 461.712C652.133 459.846 651.333 436.246 652.533 415.046C653.2 401.846 654.133 375.846 654.4 357.312C654.8 332.246 655.333 323.179 656.667 321.579C657.6 320.512 662 317.846 666.4 315.846C680.8 309.179 679.867 313.446 679.467 257.979C678.933 203.046 679.333 204.912 667.867 200.646C656.667 196.512 637.2 191.846 626.667 190.912L616.533 189.979V210.912C616.533 234.646 617.733 239.312 624.8 243.712C630.8 247.312 628.4 247.046 615.6 242.512C602.4 237.846 602.4 237.846 599.733 232.779C598.133 229.712 597.733 226.646 598.4 221.179C600.8 198.779 600.8 197.846 598.133 193.579C593.2 185.979 580.933 182.379 559.2 182.379C543.867 182.379 540.667 180.646 537.333 170.912C536.267 167.579 532.133 161.179 528.4 156.646C517.6 143.712 516 139.046 516.667 122.379C516.933 114.646 517.067 100.779 516.933 91.579L516.667 74.6457L522.267 75.979C529.333 77.579 536.933 76.779 554.8 72.2457C571.867 67.979 579.733 68.2457 597.2 73.8457C608.133 77.3124 610.933 77.7124 627.867 77.7124C644.133 77.7124 648.267 77.179 659.867 73.979C667.2 71.979 675.6 68.6457 678.533 66.6457L683.867 63.0457L665.2 62.2457C644.8 61.179 636.533 59.179 628 53.0457L622.933 49.179L628.267 47.579C634.667 45.7124 641.6 40.2457 644.933 34.5124C647.2 30.5124 647.2 30.379 644.933 30.379C643.6 30.5124 638.933 31.3124 634.533 32.379C623.733 35.0457 616.133 34.9124 592.933 31.579C569.333 28.2457 555.733 28.6457 531.333 33.7124C522.267 35.579 514.667 37.0457 514.4 37.0457C513.467 37.0457 515.6 22.779 517.333 16.5124C519.067 10.5124 518.933 9.44571 516.8 5.17904C514.133 -0.287625 510.133 -1.62096 506.8 2.11237ZM495.333 202.246C498.4 204.646 498.533 205.712 498.933 222.779C499.467 242.912 499.733 242.379 488.267 242.379H483.333L483.467 223.979C483.6 213.979 483.2 204.379 482.667 202.646C481.733 199.979 482.133 199.712 486.933 199.712C490.133 199.712 493.467 200.646 495.333 202.246ZM427.2 203.579C431.733 212.246 431.467 239.446 426.4 256.779C423.067 268.246 423.067 268.246 414.4 269.179C404.933 270.112 379.733 277.312 370.533 281.712C361.333 285.979 365.867 285.846 385.867 280.912C404.267 276.512 429.067 274.512 445.333 276.379C454.4 277.446 454.4 277.446 450.533 279.179C448.4 280.112 445.067 280.912 443.2 281.046C439.333 281.179 427.733 286.112 428.8 287.179C430 288.246 464.133 285.046 481.867 282.112C510.133 277.446 545.2 279.979 586.533 289.712C610.133 295.312 627.2 299.979 627.2 301.046C627.2 302.912 619.467 303.579 610.933 302.379C606.267 301.712 564.933 301.046 519.067 300.912C447.067 300.646 434 300.912 421.867 302.779C403.2 305.712 371.067 309.046 361.467 309.046C357.2 309.046 351.733 308.112 349.067 307.046C340.933 303.712 340.533 300.912 340.533 256.779V217.712L356.667 213.312C365.6 210.912 373.2 209.312 373.733 209.712C374.133 210.246 374.667 217.979 374.933 227.046L375.467 243.446L382.4 240.246C386.267 238.512 393.467 236.112 398.267 234.912L407.2 232.646V227.712C407.2 225.046 407.6 218.246 408 212.646L408.933 202.512L416.4 201.979C420.533 201.712 424.267 201.446 424.8 201.312C425.333 201.179 426.4 202.246 427.2 203.579ZM545.333 205.712C546.533 208.779 547.2 215.046 547.2 224.379C547.2 240.112 545.467 243.712 538 243.712C529.867 243.712 529.867 243.579 529.867 225.179C529.867 204.112 530.267 202.646 535.733 201.979C538 201.712 540.667 201.312 541.6 201.312C542.533 201.179 544.267 203.179 545.333 205.712ZM658.4 214.779L666.267 217.579L665.467 244.246C664.933 259.046 664.533 277.179 664.533 284.512C664.533 295.712 664.133 298.646 662.133 301.179C658.533 305.446 652.667 305.046 644.267 299.712C640.4 297.312 632.4 292.646 626.667 289.446C620.8 286.379 615.733 283.312 615.333 282.912C614.933 282.512 619.2 282.512 624.933 283.046C634.8 283.979 635.467 283.846 636.133 281.179C636.533 279.712 637.333 278.379 638 278.379C638.533 278.379 638.133 275.846 636.933 272.646C635.333 268.112 634.933 261.579 635.067 239.046C635.2 223.579 635.6 209.979 636 208.779C636.667 206.646 637.2 206.646 643.6 209.312C647.467 210.779 654.133 213.312 658.4 214.779ZM529.2 251.579C529.6 252.246 529.333 253.179 528.533 253.712C527.867 254.112 527.2 253.579 527.2 252.512C527.2 250.112 528 249.712 529.2 251.579ZM433.867 271.712C433.867 272.379 433.2 273.046 432.4 273.046C431.733 273.046 431.467 272.379 431.867 271.712C432.267 270.912 432.933 270.379 433.333 270.379C433.6 270.379 433.867 270.912 433.867 271.712ZM582.267 307.312C581.333 307.579 579.467 307.579 578.267 307.312C576.933 306.912 577.733 306.646 579.867 306.646C582.133 306.646 583.067 306.912 582.267 307.312ZM444.267 318.512C449.333 320.246 450.533 323.712 449.333 332.246L448.4 338.112L429.867 339.046C419.6 339.579 411.2 340.512 411.2 341.179C411.2 341.846 412.667 342.379 414.533 342.379C417.733 342.379 417.867 342.646 417.867 351.712V361.046L409.6 361.179C401.867 361.312 401.6 361.446 405.733 362.646C408.133 363.312 411.6 364.779 413.333 365.979C416.4 367.846 416.533 367.846 417.867 364.379C419.067 361.179 419.733 360.779 423.333 361.579C425.733 361.979 430.133 362.379 433.333 362.379H439.2L439.333 370.646L439.6 379.046L440.933 370.646C442.133 362.912 442.533 362.379 445.733 362.379C451.467 362.512 459.467 364.779 460.667 366.646C462.933 369.979 461.867 375.846 458.533 379.046C455.467 382.246 454.533 382.379 439.867 382.379C424.4 382.379 420.133 381.446 416.933 377.179C415.6 375.312 415.067 375.446 412.533 378.646C409.467 382.646 402.933 384.512 396.667 383.046C392.8 382.246 392.533 381.846 392.533 375.846C392.533 369.312 394 366.379 398.533 363.979C400.667 362.779 399.467 362.512 392.267 362.379C387.067 362.379 383.2 362.912 383.2 363.712C383.2 364.379 384.4 365.046 385.867 365.046C388.267 365.046 388.533 365.979 388.533 372.379C388.533 378.512 387.867 380.246 384.533 384.112L380.533 388.646L404.4 389.312C424.133 389.846 429.2 390.512 433.333 392.512C437.867 394.646 438.533 395.712 438.933 399.979C439.333 404.246 439.867 405.046 442.533 405.046C444.267 405.046 447.333 406.379 449.333 408.112C452.267 410.646 453.067 412.646 453.6 418.779L454.133 426.379H416C391.467 426.379 377.867 426.912 377.867 427.712C377.867 428.379 380.267 429.046 383.2 429.046C388.133 429.046 388.533 429.312 388.533 432.646C388.533 436.912 384.133 447.179 380.933 450.646C378.933 452.912 379.467 453.046 392.267 453.046H405.867V460.779C405.867 470.379 403.733 472.779 394 473.979C386.533 474.779 385.6 475.846 390.267 477.979C391.867 478.779 394.133 480.912 395.067 482.912C398.133 488.512 395.733 493.046 387.867 497.046L381.2 500.379L390.8 500.779L400.267 501.179L400.8 507.046C401.333 514.379 400 521.046 397.6 522.512C396.667 523.179 393.467 524.512 390.533 525.446C385.6 526.912 386.667 527.046 403.867 527.446C414.133 527.579 427.333 527.179 433.2 526.512C439.067 525.846 444.4 525.712 445.067 526.379C445.6 526.912 446.533 530.246 446.8 533.446L447.467 539.579L438 540.512C428.933 541.312 428.533 541.579 430.667 543.846C434.667 548.379 436.4 556.112 436.533 570.646C436.533 588.112 435.2 590.379 424.667 590.379C421.2 590.379 414.533 590.779 409.867 591.312L401.6 592.112L402.4 587.979C404.933 574.912 405.2 576.112 399.333 575.179C391.733 573.979 388.133 575.846 385.2 582.646C380.533 593.446 376.133 595.579 369.733 590.512L366.4 587.979L366.133 484.912C366 428.112 365.467 370.512 365.067 356.912C363.867 321.179 364.533 319.846 386.267 318.646L397.867 318.112V324.512C397.733 328.112 397.2 333.712 396.533 337.046L395.467 343.046L398 339.846C399.733 337.712 400.533 334.646 400.533 329.846C400.533 322.646 401.867 319.846 406.533 317.179C409.867 315.179 437.733 316.246 444.267 318.512ZM631.067 317.579C638.533 321.579 638.267 315.979 638 456.246C637.867 537.446 637.2 586.379 636.4 587.846C634.533 591.446 630.267 593.312 623.467 593.446C615.733 593.446 612.533 589.979 612.533 581.579V575.712H603.6C583.333 575.712 580 572.512 580.8 553.712L581.333 541.046H577.467C571.733 541.046 569.2 537.712 569.6 530.646C569.733 527.312 570.133 524.379 570.533 523.979C570.8 523.579 578.533 524.379 587.467 525.579C605.067 527.846 620.533 528.379 618.4 526.646C617.733 525.979 614.267 524.379 610.8 523.179C602.4 519.979 600.933 516.912 603.067 507.046L604.667 499.712L615.6 499.579C625.733 499.446 626.133 499.312 621.6 497.979C618.8 497.179 616.533 496.112 616.533 495.446C616.533 494.912 612.133 494.379 606.933 494.379C601.6 494.379 594.933 493.979 592.267 493.579L587.2 492.646V483.312V473.979L597.467 474.912C615.333 476.512 614.667 476.112 616.267 485.446L617.733 493.712L617.067 485.446C616.533 478.379 616.8 477.179 618.8 476.646C620.4 476.246 618.933 475.046 613.867 472.779C604.933 468.646 603.2 466.646 602.267 459.979C601.2 452.379 603.867 450.379 615.2 450.379H624.267L619.867 445.979C617.333 443.446 614.933 439.846 614.4 437.979C613.2 432.912 616.8 427.712 621.6 427.579C623.6 427.579 626.4 427.046 627.867 426.512C629.867 425.712 628.4 425.046 621.733 423.846C616.933 423.046 610.533 422.379 607.467 422.379H601.867V413.846V405.446L595.6 404.512C586.4 403.312 585.467 402.379 586.533 395.579L587.333 389.712L603.467 390.112C615.867 390.512 619.867 390.246 620.667 388.779C622.533 385.846 622.133 385.179 616.4 383.712L610.933 382.246L611.733 373.979C612.267 369.446 613.067 364.379 613.333 362.912C614 360.379 613.333 359.979 606.933 359.179C597.067 357.846 593.867 355.446 593.867 349.579C593.867 342.379 595.867 339.712 601.333 339.712C608.8 339.712 613.467 334.112 614.667 323.846L615.6 315.712H621.467C624.667 315.712 628.933 316.512 631.067 317.579ZM240.533 334.912C240.533 335.312 240 335.979 239.2 336.379C238.533 336.779 237.867 336.512 237.867 335.846C237.867 335.046 238.533 334.379 239.2 334.379C240 334.379 240.533 334.646 240.533 334.912ZM456.933 343.979C458.667 344.912 459.2 346.912 459.2 353.846C459.2 361.712 458.933 362.512 456.933 361.712C455.6 361.179 448.933 360.379 442.133 359.979C430.267 359.312 429.733 359.179 430.4 356.512C430.8 354.912 431.2 350.779 431.2 347.312V340.779L442.933 341.712C449.333 342.246 455.6 343.312 456.933 343.979ZM471.2 375.446C471.2 377.446 470.933 377.446 469.867 375.712C468.133 373.046 468.133 371.312 469.867 372.379C470.667 372.779 471.2 374.246 471.2 375.446ZM472.133 395.979C471.733 397.046 471.333 396.646 471.333 395.179C471.2 393.712 471.6 392.912 472 393.446C472.4 393.846 472.533 395.046 472.133 395.979ZM606.267 427.179L611.2 428.112V437.712V447.446L600 447.179C587.333 447.046 587.2 446.912 587.2 436.512C587.2 427.312 592 424.912 606.267 427.179ZM409.6 428.512C415.333 430.112 418.667 441.846 414.933 446.646C412.667 449.446 406.267 450.512 398 449.446L391.2 448.646V441.179C391.2 437.046 391.733 432.912 392.4 431.979C394.4 428.779 403.6 426.912 409.6 428.512ZM444.933 428.646C443.2 428.912 440.533 428.912 438.933 428.646C437.2 428.379 438.533 428.112 441.867 428.112C445.2 428.112 446.533 428.379 444.933 428.646ZM457.867 436.246C457.867 440.646 457.067 443.179 454.667 445.979C451.733 449.446 450.667 449.712 442.4 449.712H433.333L431.333 443.446C429.867 438.512 429.733 436.379 430.933 433.712C432.4 430.512 432.933 430.379 445.2 430.379H457.867V436.246ZM507.2 447.846C507.2 453.046 507.2 453.046 501.867 453.046C496.667 453.046 496.533 452.912 498 449.979C500.267 445.579 504.8 441.046 506 441.846C506.667 442.246 507.2 444.912 507.2 447.846ZM520.933 448.912L523.467 453.046H518H512.533V446.912C512.533 440.779 512.533 440.779 515.6 442.646C517.2 443.846 519.6 446.512 520.933 448.912ZM446.133 457.312C446.4 465.846 445.733 470.912 444.267 472.646C443.333 473.846 438 474.379 426.4 474.379H409.867V463.712V453.179L418.267 452.646C422.8 452.379 430.933 452.112 436.267 451.979L445.867 451.712L446.133 457.312ZM313.2 459.712C313.6 460.379 313.333 461.046 312.667 461.046C311.867 461.046 311.2 460.379 311.2 459.712C311.2 458.912 311.467 458.379 311.733 458.379C312.133 458.379 312.8 458.912 313.2 459.712ZM507.2 465.046V471.712H502.533H497.867V465.046V458.379H502.533H507.2V465.046ZM521.867 465.046V471.712H517.2H512.533V465.046V458.379H517.2H521.867V465.046ZM364.133 477.979C363.867 480.112 363.6 478.379 363.6 474.379C363.6 470.379 363.867 468.646 364.133 470.646C364.4 472.779 364.4 475.979 364.133 477.979ZM421.2 480.379C423.333 482.379 424.533 485.179 424.533 487.712C424.533 489.846 425.2 491.712 425.867 491.712C426.667 491.712 427.2 488.379 427.2 484.379C427.2 475.846 429.067 475.046 436.667 480.112C443.867 484.779 446.4 491.579 446.933 507.179L447.467 520.646L430.4 521.579C420.933 521.979 410.933 522.779 408.267 523.312L403.2 524.112V512.112V500.246L409.6 498.379L415.867 496.379L408.4 495.979L400.933 495.579L400 489.446C398.267 476.646 398 477.046 408.533 477.046C416.8 477.046 418.4 477.446 421.2 480.379ZM461.2 507.712C461.6 508.379 461.333 509.046 460.667 509.046C459.867 509.046 459.2 508.379 459.2 507.712C459.2 506.912 459.467 506.379 459.733 506.379C460.133 506.379 460.8 506.912 461.2 507.712ZM533.467 541.046H540.533V547.446C540.533 551.046 540.133 560.379 539.6 568.112L538.8 582.379H529.867H520.933L520 565.312C519.467 555.979 518.8 546.112 518.267 543.446L517.6 538.512L522 539.712C524.533 540.512 529.733 541.046 533.467 541.046ZM723.6 539.312C721.867 539.579 719.2 539.579 717.6 539.312C715.867 539.046 717.2 538.779 720.533 538.779C723.867 538.779 725.2 539.046 723.6 539.312ZM484.533 561.046V579.712H478.133H471.6L470.8 563.312C470.4 554.379 469.6 545.979 469.2 544.646C468.4 542.646 469.2 542.379 476.4 542.379H484.533V561.046ZM346.933 549.179L353.867 550.779V570.512C353.867 589.312 353.733 590.379 350.933 593.179C348.267 595.579 346.667 595.846 338.133 595.312C332.8 595.046 328.133 594.379 327.733 593.979C327.067 593.312 337.333 561.712 341.067 552.912C341.733 551.579 340.667 550.246 337.6 548.646C332.8 546.112 332.933 546.112 346.933 549.179ZM568.133 552.646C567.733 553.979 567.467 553.179 567.467 551.046C567.467 548.779 567.733 547.846 568.133 548.646C568.4 549.579 568.4 551.446 568.133 552.646ZM678 557.179C697.333 566.779 705.2 585.179 706.667 624.112C707.333 642.246 709.067 655.046 711.067 656.246C711.6 656.646 711.733 653.046 711.467 648.379L710.933 639.846L715.333 641.046C717.867 641.846 721.467 642.379 723.467 642.379C729.6 642.379 727.467 651.312 720.267 655.712C716.133 658.112 716.133 658.379 719.067 658.379C722 658.379 722.133 658.779 721.6 665.712C720.933 673.846 718.267 677.846 712.533 679.046L708.933 679.846L711.467 684.779C715.6 692.646 714.267 720.112 708 751.712C702 781.979 702.267 781.046 699.2 781.046C697.867 781.046 696.267 781.712 695.733 782.512C694.267 784.912 692.533 780.912 692.533 774.912C692.533 771.846 693.2 766.112 694 762.246C694.667 758.246 695.6 747.846 695.867 739.046C696.267 730.246 697.067 713.979 697.733 703.046C699.6 676.112 699.6 649.179 697.6 620.246L696 596.112L678.4 594.379C668.667 593.446 658 593.046 654.8 593.446L648.8 594.246L650.667 588.112C651.733 584.779 652.533 577.046 652.533 570.912C652.533 557.579 653.067 555.846 658.4 553.712C663.467 551.446 668.4 552.379 678 557.179ZM189.867 568.912V575.579L196.933 576.379C207.467 577.712 207.6 577.979 206.533 588.779L205.6 598.112L199.467 598.912C196 599.312 188.267 600.112 182.267 600.512L171.2 601.446L171.067 595.579C170.933 592.379 170.533 588.246 170 586.379C169.2 583.712 168.8 584.779 168.133 591.179C167.733 595.579 166.933 600.246 166.4 601.446C165.733 603.312 166.4 603.712 170.4 603.712H175.2V615.046C175.2 626.112 175.067 626.379 172 626.379C168.933 626.379 168.8 626.646 169.467 634.912C170.133 642.112 169.733 644.379 167.467 648.246L164.667 653.046H170.4C178.8 653.046 182.533 656.512 182.4 663.979C182.4 667.046 181.333 671.712 180 673.979C177.467 679.046 175.733 678.512 196.533 678.912C211.867 679.179 216 680.779 218.667 687.179C223.333 698.379 214.533 704.646 196.667 702.912L188.533 701.979V691.579C188.533 685.446 188 681.046 187.2 681.046C186.4 681.046 185.867 685.179 185.867 690.779V700.646L178.267 701.846C170.667 703.179 170.667 703.179 174.267 704.779C176.4 705.712 181.2 706.379 185.067 706.379C193.467 706.379 193.867 706.912 193.867 722.112C193.867 730.246 193.467 731.979 191.6 732.512C186.933 733.979 174.933 739.846 175.467 740.379C175.867 740.779 186.933 740.379 200.267 739.446C213.6 738.646 224.8 738.246 225.2 738.512C225.467 738.912 224.933 742.379 223.867 746.379C222.8 750.379 220 762.912 217.867 774.112C213.067 798.646 211.6 801.712 204.8 803.579C202.133 804.379 199.067 805.046 198.267 805.046C197.333 805.046 196.533 806.379 196.533 807.979C196.4 817.179 187.067 827.579 176.933 829.712C172.8 830.512 172.8 830.379 170.667 823.179C168.4 815.312 165.867 812.246 165.867 817.312C165.867 822.379 159.733 833.846 155.467 836.912C151.333 839.846 142.533 843.979 136.933 845.579L134.133 846.512L137.2 836.646C141.2 823.979 144 807.579 145.867 785.712C146.667 776.112 148.267 759.446 149.333 748.379C150.8 733.446 151.2 709.979 151.2 653.846C151.067 582.512 151.2 579.046 153.6 575.846C157.067 571.179 166 566.779 176.533 564.512C190.267 561.579 189.867 561.446 189.867 568.912ZM363.2 576.646C361.867 578.779 361.733 578.646 362.4 575.712C362.8 573.846 363.333 570.912 363.333 569.046C363.6 566.512 363.733 566.646 364.133 569.979C364.4 572.379 364 575.446 363.2 576.646ZM862 572.512C868.933 575.979 868.933 575.979 867.733 608.646C866.4 641.846 866.4 640.246 868.667 701.979C869.6 725.579 870.667 744.646 871.2 744.379C871.6 744.112 872.667 754.779 873.6 768.112C874.4 781.446 876.933 803.179 879.2 816.379C884.667 849.312 884.8 848.646 875.467 843.846C868.267 840.112 864.667 835.579 861.867 826.912L859.467 819.046L857.067 823.579C852.533 831.846 848.933 834.779 844.133 833.846C830 831.046 830.133 831.179 829.2 821.846C828.667 817.179 828.667 812.112 829.067 810.646C829.867 808.246 829.2 807.579 824.533 806.379C817.067 804.379 813.867 800.912 813.867 794.646C813.733 779.446 811.2 746.512 809.867 743.179C809.067 741.046 808.667 739.179 808.8 738.912C809.067 738.779 816.133 739.446 824.533 740.379C832.933 741.446 841.733 742.246 843.867 742.246L847.867 742.379L843.867 739.712C837.467 735.579 833.733 727.846 832.933 716.379L832.133 706.379H846.4C859.467 706.379 860.533 706.246 859.467 703.979C856.8 699.046 853.733 682.112 855.2 680.379C856.267 679.046 853.733 678.512 843.6 677.846C836.4 677.312 828 676.646 824.933 676.246L819.2 675.446V666.379V657.312L831.867 656.379C842.933 655.579 844.267 655.179 843.333 653.179C842.8 651.979 841.6 647.979 840.667 644.379C839.733 640.646 838.8 636.779 838.4 635.579C837.867 633.846 839.2 633.179 844.8 632.512C856.4 631.046 860.533 630.112 860.533 629.046C860.533 627.579 849.467 626.379 847.867 627.712C844.667 630.379 836.533 620.912 836.533 614.512C836.533 610.912 842.667 606.379 847.733 606.379C850.933 606.379 851.333 605.979 849.867 605.046C848.8 604.379 844.533 603.712 840.533 603.712H833.2V594.379C833.2 588.246 833.733 585.046 834.667 585.046C835.6 585.046 839.6 586.779 843.733 588.912L851.2 592.912V583.046C851.2 568.112 852 567.446 862 572.512ZM380.267 595.312C378.933 595.579 376.8 595.579 375.6 595.312C374.267 594.912 375.333 594.646 377.867 594.646C380.4 594.646 381.467 594.912 380.267 595.312ZM200.4 624.912C201.733 625.712 202 627.846 201.2 633.179C199.867 643.712 199.467 644.912 195.2 647.046C190.133 649.712 179.333 649.579 175.467 646.912C171.333 644.112 171.467 635.846 175.6 630.912C178.267 627.846 180.133 627.179 187.067 626.646C191.6 626.379 195.6 625.579 196 624.912C196.933 623.446 198 623.446 200.4 624.912ZM561.867 634.112C561.867 638.912 562.667 642.912 563.867 644.646C566.667 648.646 574.933 650.646 583.333 649.579L590.267 648.646L589.333 653.846C588.8 656.646 586.267 662.512 583.733 666.646L579.067 674.246L578.8 713.312L578.533 752.379L584.267 764.512C587.333 771.179 589.867 777.312 589.867 778.112C589.867 779.312 582.533 779.712 563.2 779.712C544.4 779.712 536.533 779.312 536.533 778.246C536.533 777.446 538.8 771.846 541.6 765.846L546.533 755.046V730.379C546.533 707.446 546.267 705.179 543.467 699.046C536.933 684.912 524.933 677.046 509.733 677.046C493.067 677.046 481.2 684.112 474.267 698.112C470.667 705.446 470.533 706.646 470.133 728.512L469.6 751.179L475.067 763.979C478.133 770.912 480.533 777.446 480.533 778.246C480.533 779.312 472.8 779.712 453.867 779.712C434.933 779.712 427.2 779.312 427.2 778.246C427.2 777.446 428.933 773.579 431.067 769.846C437.867 757.712 438.533 751.979 438.133 711.179C437.867 676.912 437.6 673.579 435.2 669.846C430 661.579 428.8 658.779 427.733 653.846L426.8 648.646L434 649.446C442.8 650.512 450.4 648.646 453.2 644.646C454.4 642.912 455.2 638.779 455.2 634.112V626.379H508.533H561.867V634.112ZM715.2 634.912C715.2 635.312 714.667 635.979 713.867 636.379C713.2 636.779 712.533 636.512 712.533 635.846C712.533 635.046 713.2 634.379 713.867 634.379C714.667 634.379 715.2 634.646 715.2 634.912ZM148.133 640.646C147.733 641.979 147.467 641.179 147.467 639.046C147.467 636.779 147.733 635.846 148.133 636.646C148.4 637.579 148.4 639.446 148.133 640.646ZM828.533 679.712C828.533 680.379 828.267 681.046 828 681.046C827.6 681.046 826.933 680.379 826.533 679.712C826.133 678.912 826.4 678.379 827.067 678.379C827.867 678.379 828.533 678.912 828.533 679.712ZM844.667 681.846C847.333 682.512 849.333 687.179 851.733 697.179L853.467 704.512H842.4L831.467 704.379L830.667 695.712C830.267 690.912 829.867 685.312 829.867 683.179C829.867 679.446 829.867 679.446 836.267 680.246C839.733 680.779 843.467 681.446 844.667 681.846ZM223.2 735.712C223.2 736.379 222.667 737.046 221.867 737.046C221.2 737.046 220.533 736.379 220.533 735.712C220.533 734.912 221.2 734.379 221.867 734.379C222.667 734.379 223.2 734.912 223.2 735.712ZM722.267 756.912C721.2 761.579 718.4 766.912 716.133 768.779C714.533 770.112 714.133 769.446 713.333 764.246C711.867 753.446 712 753.446 717.867 753.446C722.933 753.446 723.067 753.579 722.267 756.912ZM741.867 776.912C742.667 779.046 743.2 781.979 742.933 783.312C742.133 787.446 735.2 779.446 735.2 774.379C735.2 770.779 735.467 770.512 737.733 771.579C739.067 772.379 740.933 774.779 741.867 776.912ZM231.067 794.646C230.933 802.512 228.533 811.979 226.533 812.646C225.733 812.779 224.4 812.512 223.467 811.846C222 811.046 222.133 809.179 223.733 801.846C227.333 786.379 231.333 782.646 231.067 794.646ZM908.533 813.046C908.533 813.712 908.267 814.379 908 814.379C907.6 814.379 906.933 813.712 906.533 813.046C906.133 812.246 906.4 811.712 907.067 811.712C907.867 811.712 908.533 812.246 908.533 813.046ZM912.533 826.379C912.533 827.046 911.867 827.712 911.067 827.712C910.4 827.712 910.133 827.046 910.533 826.379C910.933 825.579 911.6 825.046 912 825.046C912.267 825.046 912.533 825.579 912.533 826.379ZM70.9333 864.646C67.3333 864.912 61.7333 864.912 58.2667 864.646C54.6667 864.379 57.6 864.246 64.5333 864.246C71.4667 864.246 74.4 864.379 70.9333 864.646ZM909.467 875.179C909.067 875.579 907.867 875.712 906.933 875.312C905.867 874.912 906.267 874.512 907.733 874.512C909.2 874.379 910 874.779 909.467 875.179ZM375.6 900.646C374.667 900.912 372.8 900.912 371.6 900.646C370.267 900.246 371.067 899.979 373.2 899.979C375.467 899.979 376.4 900.246 375.6 900.646Z" fill="#341A34"/>
<path d="M389.2 403.712C388.667 404.512 390 405.046 392.4 405.046H396.4L396.933 413.979L397.333 423.046L397.6 413.979L397.867 405.046H409.2C415.867 405.046 420.533 404.512 420.533 403.712C420.533 402.912 414.533 402.379 405.333 402.379C396.533 402.379 389.733 402.912 389.2 403.712Z" fill="#341A34"/>
<path d="M393.2 543.046C389.733 546.379 389.067 551.312 390.667 561.312L391.6 566.379H399.6H407.6L406.667 560.246C406.267 556.779 405.867 550.779 405.867 546.912V539.712H401.2C397.867 539.712 395.333 540.779 393.2 543.046Z" fill="#341A34"/>
<path d="M596.533 552.246V566.379H604.533H612.533V553.046V539.712H608.667C606.533 539.712 602.933 539.312 600.667 538.912L596.533 537.979V552.246Z" fill="#341A34"/>
<path d="M169.867 578.512C169.867 580.912 170.133 581.046 171.867 579.712C173.867 578.112 173.467 575.712 171.067 575.712C170.4 575.712 169.867 577.046 169.867 578.512Z" fill="#341A34"/>
<path d="M179.867 776.646C181.867 781.712 182 792.646 180.133 799.312L178.267 806.379L186.4 806.246C190.933 806.112 192.933 805.712 190.933 805.446C186.8 804.779 186.8 805.046 187.2 784.646L187.333 774.379H183.2C179.6 774.379 179.067 774.779 179.867 776.646Z" fill="#341A34"/>
<path d="M836.4 777.712C840.8 782.779 840.8 782.912 840.267 793.979C839.733 804.779 839.733 805.046 842.8 805.046C845.867 805.046 845.867 804.779 845.067 795.979C844.667 791.046 844.933 784.512 845.6 781.446C847.067 775.179 847.2 775.312 837.2 773.579L831.867 772.646L836.4 777.712Z" fill="#341A34"/>
</svg>
