<svg width="273" height="272" viewBox="0 0 273 272" fill="none" xmlns="http://www.w3.org/2000/svg">
<path fill-rule="evenodd" clip-rule="evenodd" d="M136.379 0C236.72 0 272.158 35.6044 272.158 135.779C272.158 235.575 236.129 271.558 136.379 271.558C36.9217 271.558 0.599609 235.113 0.599609 135.779C0.599609 36.0642 36.3293 0 136.379 0ZM126.341 151.688C120.121 166.502 105.476 176.906 88.4022 176.906C65.6875 176.906 47.2736 158.493 47.2736 135.777C47.2736 113.063 65.6875 94.6487 88.4022 94.6487C105.476 94.6487 120.121 105.053 126.341 119.867C132.835 95.4702 153.905 77.0173 179.657 74.4024C183.835 73.9786 185.963 74.3447 185.963 79.2254V116.498C185.963 119.274 185.441 120.657 179.657 120.657C171.055 120.657 165.519 128.306 165.519 135.777C165.519 144.296 170.492 151.201 179.657 151.201C185.963 151.201 185.963 147.674 185.963 143.328V125.495C185.963 122.068 187.168 120.354 190.381 120.354H210.022C213.171 120.354 213.318 120.413 215.126 122.922C215.126 122.922 223.016 133.81 224.391 135.777C225.766 137.746 225.927 138.348 224.391 140.64C222.855 142.933 215.126 153.727 215.126 153.727C213.323 156.274 213.196 156.342 210.022 156.342H195.274C187.585 156.342 185.963 161.662 185.963 166.463V191.044C185.963 196.773 184.949 197.69 179.657 197.152C153.905 194.538 132.835 176.085 126.341 151.688ZM102.112 135.777C102.112 143.349 95.9742 149.487 88.4022 149.487C80.8309 149.487 74.6931 143.349 74.6931 135.777C74.6931 128.206 80.8309 122.068 88.4022 122.068C95.9742 122.068 102.112 128.206 102.112 135.777Z" fill="#17151F"/>
</svg>
