<svg width="200" height="35" viewBox="0 0 200 35" fill="none" xmlns="http://www.w3.org/2000/svg">
<g clip-path="url(#clip0_279_211)">
<path fill-rule="evenodd" clip-rule="evenodd" d="M66.6667 4.33333H49.2754V7.23188H66.6667V4.33333ZM71.0145 14.4783H44.9275V17.3768H56.5217C56.4203 19.4638 55.7391 24.7101 51.6232 28.2174C50.5072 29.1594 49.2319 29.8986 47.8261 30.4348L51.3913 31.8696C52.3478 31.3043 53.058 30.7536 53.5217 30.3623C59.1884 25.5652 59.4058 18.2464 59.4203 17.5072V17.3768H71.0145V14.4783ZM87.1739 7.23188L86.1159 4.33333H82.087L81.0145 7.23188L72.4348 30.4203H95.6232L87.1594 7.23188H87.1739ZM84.1014 7.23188L86.7391 14.4783H81.4203L84.1014 7.23188ZM80.3478 17.3768H87.7971L91.4928 27.5217H76.5797L80.3333 17.3768H80.3478ZM97.1015 4.33333L105.681 27.5217L106.754 30.4203H110.783L111.841 27.5217L120.304 4.33333H97.1015ZM116.159 7.23188L113.522 14.4783H103.942L101.261 7.23188H116.174H116.159ZM108.754 27.5217L105 17.3768H112.449L108.754 27.5217ZM198.652 4.33333H181.159V30.4203H184.058V7.23188H197.101V30.4203H200V4.33333H198.652ZM147.826 7.23188V4.33333H128.986V14.4783H123.188V17.3768H128.986V30.4203H147.826V27.5217H131.884V17.3768H140.58V14.4783H131.884V7.23188H147.826ZM173.913 10.9275V10.7971C173.913 7.23188 171.029 4.33333 167.449 4.33333H155.072V14.4783L152.174 14.4928V17.3913L155.072 17.3768V30.4203H157.971V17.3768H165.217L169.971 30.4203H173.058L168.275 17.2899C171.449 16.8841 173.913 14.2029 173.913 10.913V10.9275ZM167.391 14.4783H157.971V7.23188H167.188C169.087 7.23188 170.812 8.5942 171 10.4783C171.053 10.9835 170.999 11.4943 170.841 11.9773C170.684 12.4603 170.427 12.9049 170.087 13.2821C169.746 13.6593 169.331 13.9607 168.866 14.1668C168.402 14.3729 167.899 14.479 167.391 14.4783ZM17.3913 0C7.78261 0 0 7.78261 0 17.3913C0 27 7.78261 34.7826 17.3913 34.7826C27 34.7826 34.7826 27 34.7826 17.3913C34.7826 7.78261 27 0 17.3913 0ZM11.971 8.46377H23.5652V11.3623H11.971V8.46377ZM26.4638 17.1449H19.2029C19.2319 19.3043 18.7246 21.4203 17.7246 23.2899C16.8895 24.8521 15.728 26.2163 14.3188 27.2899L10.5072 26.2464C11.6522 25.7246 13.7971 24.4638 15.1449 21.9275C16.1159 20.1014 16.3043 18.3333 16.2899 17.1449H9.07246V14.2464H26.4638V17.1449Z" fill="#17151F"/>
</g>
<defs>
<clipPath id="clip0_279_211">
<rect width="200" height="34.7826" fill="white"/>
</clipPath>
</defs>
</svg>
